<?xml version="1.0" standalone="no"?>
<!DOCTYPE svg PUBLIC "-//W3C//DTD SVG 20010904//EN"
 "http://www.w3.org/TR/2001/REC-SVG-20010904/DTD/svg10.dtd">
<svg version="1.0" xmlns="http://www.w3.org/2000/svg"
 width="75.000000pt" height="75.000000pt" viewBox="0 0 75.000000 75.000000"
 preserveAspectRatio="xMidYMid meet">
<metadata>
Created by potrace 1.11, written by Peter Selinger 2001-2013
</metadata>
<g transform="translate(0.000000,75.000000) scale(0.100000,-0.100000)"
fill="#000000" stroke="none">
<path d="M0 466 l0 -285 33 -4 32 -4 -33 -1 c-22 -1 -32 -6 -29 -14 2 -7 11
-12 20 -12 9 1 14 -2 11 -7 -3 -5 -12 -9 -20 -9 -11 0 -14 -15 -14 -65 l0 -65
375 0 375 0 0 115 c0 70 -4 115 -10 115 -5 0 -10 5 -10 11 0 5 5 7 10 4 7 -4
10 82 10 249 l0 256 -375 0 -375 0 0 -284z m476 77 c3 -16 10 -39 15 -53 4
-14 9 -49 11 -77 1 -29 3 -53 5 -53 2 0 8 10 13 23 8 20 9 21 9 2 1 -11 -6
-30 -14 -43 -9 -12 -17 -35 -18 -52 -1 -16 -5 -30 -9 -30 -13 0 -9 -58 5 -63
8 -4 6 -6 -4 -6 -9 -1 -21 -12 -27 -25 -6 -14 -21 -30 -34 -37 -23 -12 -23
-11 2 16 18 20 20 26 8 22 -13 -5 -12 2 7 30 37 53 42 98 16 133 -25 35 -26
40 -5 40 13 0 14 3 5 14 -9 10 -8 15 4 20 24 9 18 22 -19 44 -25 15 -36 17
-41 9 -3 -7 -3 -1 1 13 3 14 7 39 9 55 1 17 3 33 4 38 0 4 12 7 26 7 19 0 26
-7 31 -27z m-73 -189 c-9 -23 -26 -11 -30 21 -4 29 -4 29 16 11 11 -10 17 -24
14 -32z m-176 -46 c-3 -8 -6 -5 -6 6 -1 11 2 17 5 13 3 -3 4 -12 1 -19z m188
-7 c5 -25 -7 -27 -26 -5 -10 13 -10 17 1 24 17 11 19 9 25 -19z m-172 -80 c-3
-12 -14 -18 -29 -18 -28 0 -51 21 -34 32 6 4 9 1 8 -6 -2 -6 3 -14 10 -16 7
-3 11 1 10 9 -2 7 3 12 10 11 7 -2 12 9 13 30 l1 32 8 -27 c4 -15 6 -36 3 -47z
m174 33 c-3 -3 -12 -4 -19 -1 -8 3 -5 6 6 6 11 1 17 -2 13 -5z m303 -4 c0 -5
-4 -10 -10 -10 -5 0 -10 5 -10 10 0 6 5 10 10 10 6 0 10 -4 10 -10z m-570 -4
c0 -2 -7 -7 -16 -10 -8 -3 -12 -2 -9 4 6 10 25 14 25 6z m4 -34 c2 -4 -11 -6
-30 -4 -19 2 -34 6 -34 8 0 8 59 4 64 -4z m-36 -50 c2 -8 -9 -11 -35 -10 l-38
1 34 4 c27 4 31 7 20 15 -12 8 -12 9 0 6 8 -3 17 -10 19 -16z m575 1 c-24 -2
-62 -2 -86 0 -23 2 -4 4 43 4 47 0 66 -2 43 -4z"/>
</g>
</svg>
